<svg viewBox="0 0 369.969696969697 69.47304206615014" height="69.47304206615014" width="369.969696969697" style="width: 369.97px; height: 69.473px; position: absolute; top: 50%; left: 50%; z-index: 0; cursor: pointer; transform: translate(-50%, -50%) scale(0.562208);"><defs id="SvgjsDefs1604"></defs><g id="SvgjsG1605" featurekey="QMusi1-0" transform="matrix(16.676196821686144,0,0,16.676196821686144,-13.807891119440903,-6.95397400307665)" fill="#64ee85"><g xmlns="http://www.w3.org/2000/svg"><g><circle fill="#64ee85" cx="1.033" cy="1.554" r="0.144"></circle></g><g><circle fill="#64ee85" cx="0.972" cy="2.041" r="0.144"></circle></g><g><circle fill="#64ee85" cx="1.21" cy="1.131" r="0.144"></circle></g><g><circle fill="#64ee85" cx="3.04" cy="1.393" r="0.144"></circle></g><g><circle fill="#64ee85" cx="3.864" cy="1.675" r="0.144"></circle></g><g><circle fill="#64ee85" cx="3.805" cy="2.256" r="0.144"></circle></g><g><circle fill="#64ee85" cx="3.438" cy="3.139" r="0.144"></circle></g><g><circle fill="#64ee85" cx="3.226" cy="0.752" r="0.144"></circle></g><g><circle fill="#64ee85" cx="3.592" cy="1.195" r="0.144"></circle></g><g><circle fill="#64ee85" cx="2.271" cy="1.662" r="0.144"></circle></g><g><circle fill="#64ee85" cx="2.854" cy="0.561" r="0.144"></circle></g><g><circle fill="#64ee85" cx="1.61" cy="0.752" r="0.144"></circle></g><g><path fill="#64ee85" d="M1.818,4.254c-0.036,0-0.064-0.028-0.064-0.063V2.419l-0.69-0.744C1.04,1.649,1.041,1.608,1.066,1.584    C1.093,1.56,1.133,1.561,1.157,1.588l0.708,0.763c0.011,0.011,0.017,0.027,0.017,0.042v1.797C1.882,4.227,1.854,4.254,1.818,4.254    z"></path></g><g><path fill="#64ee85" d="M2.201,4.583c-0.036,0-0.064-0.029-0.064-0.065V2.149L1.165,1.177c-0.025-0.024-0.025-0.066,0-0.09    c0.025-0.025,0.065-0.025,0.09,0l0.991,0.991C2.258,2.09,2.265,2.106,2.265,2.123v2.395C2.265,4.553,2.236,4.583,2.201,4.583z"></path></g><g><path fill="#64ee85" d="M2.628,4.583c-0.036,0-0.064-0.029-0.064-0.065V1.319c0-0.017,0.006-0.034,0.019-0.045l0.481-0.481    c0.025-0.024,0.065-0.024,0.09,0c0.025,0.025,0.025,0.066,0,0.09L2.692,1.346v3.172C2.692,4.553,2.664,4.583,2.628,4.583z"></path></g><g><path fill="#64ee85" d="M3.036,4.254C3,4.254,2.971,4.227,2.971,4.191v-1.68c0-0.017,0.008-0.033,0.019-0.044l0.833-0.833    c0.026-0.026,0.066-0.026,0.091,0c0.025,0.024,0.025,0.065,0,0.09L3.1,2.538v1.653C3.1,4.227,3.072,4.254,3.036,4.254z"></path></g><g><path fill="#64ee85" d="M3.593,2.019c-0.017,0-0.033-0.005-0.045-0.017L3.019,1.473c-0.025-0.026-0.025-0.066,0-0.091    c0.024-0.025,0.065-0.025,0.091,0L3.638,1.91c0.024,0.026,0.024,0.065,0,0.092C3.625,2.014,3.608,2.019,3.593,2.019z"></path></g><g><path fill="#64ee85" d="M1.77,1.727c-0.017,0-0.033-0.006-0.046-0.019c-0.025-0.027-0.025-0.066,0-0.092l1.092-1.092    c0.025-0.026,0.066-0.026,0.091,0c0.025,0.025,0.025,0.065,0,0.09L1.815,1.708C1.802,1.72,1.786,1.727,1.77,1.727z"></path></g><g><path fill="#64ee85" d="M2.126,1.369c-0.016,0-0.032-0.006-0.044-0.019L1.634,0.902c-0.025-0.024-0.025-0.066,0-0.09    c0.024-0.024,0.065-0.024,0.09,0L2.172,1.26c0.024,0.024,0.024,0.066,0,0.09C2.159,1.363,2.143,1.369,2.126,1.369z"></path></g><g><circle fill="#64ee85" cx="2.129" cy="0.587" r="0.144"></circle></g><g><path fill="#64ee85" d="M2.469,1.026c-0.016,0-0.032-0.006-0.045-0.019L2.153,0.736c-0.025-0.024-0.025-0.064,0-0.089    c0.025-0.025,0.066-0.025,0.091,0l0.271,0.271c0.025,0.024,0.025,0.066,0,0.09C2.502,1.02,2.485,1.026,2.469,1.026z"></path></g><g><path fill="#64ee85" d="M2.62,2.07c-0.017,0-0.033-0.006-0.045-0.02L2.271,1.747c-0.025-0.024-0.025-0.064,0-0.089    c0.024-0.025,0.065-0.025,0.091,0l0.303,0.304c0.025,0.024,0.025,0.065,0,0.089C2.652,2.064,2.636,2.07,2.62,2.07z"></path></g><g><circle fill="#64ee85" cx="3.031" cy="1.966" r="0.144"></circle></g><g><path fill="#64ee85" d="M3.301,2.296c-0.016,0-0.033-0.007-0.045-0.02L3.031,2.052c-0.025-0.026-0.025-0.065,0-0.091    c0.025-0.025,0.066-0.025,0.091,0l0.225,0.224c0.026,0.026,0.026,0.066,0,0.091C3.334,2.289,3.318,2.296,3.301,2.296z"></path></g><g><path fill="#64ee85" d="M3.219,1.647c-0.017,0-0.033-0.006-0.045-0.02c-0.025-0.024-0.025-0.065,0-0.091L3.521,1.19    c0.026-0.026,0.066-0.026,0.091,0c0.025,0.025,0.025,0.065,0,0.09L3.265,1.627C3.252,1.641,3.235,1.647,3.219,1.647z"></path></g><g><path fill="#64ee85" d="M1.817,2.951c-0.016,0-0.032-0.006-0.045-0.019L0.926,2.085c-0.025-0.024-0.025-0.064,0-0.089    c0.025-0.025,0.065-0.025,0.091,0l0.846,0.846c0.025,0.024,0.025,0.066,0,0.09C1.851,2.945,1.834,2.951,1.817,2.951z"></path></g><g><circle fill="#64ee85" cx="1.235" cy="2.86" r="0.144"></circle></g><g><path fill="#64ee85" d="M1.816,3.505c-0.017,0-0.033-0.007-0.046-0.02L1.189,2.905c-0.025-0.025-0.025-0.066,0-0.09    c0.025-0.026,0.065-0.026,0.091,0l0.58,0.58c0.025,0.024,0.025,0.066,0,0.091C1.848,3.498,1.832,3.505,1.816,3.505z"></path></g><g><path fill="#64ee85" d="M3.043,3.1c-0.017,0-0.033-0.006-0.046-0.019c-0.024-0.025-0.024-0.066,0-0.09L3.72,2.269    c0.024-0.026,0.065-0.026,0.09,0c0.024,0.024,0.024,0.064,0,0.09L3.088,3.082C3.076,3.094,3.059,3.1,3.043,3.1z"></path></g><g><path fill="#64ee85" d="M3.036,3.605c-0.016,0-0.033-0.005-0.045-0.018c-0.025-0.026-0.025-0.065,0-0.091l0.403-0.403    c0.024-0.024,0.065-0.024,0.091,0c0.024,0.026,0.024,0.066,0,0.092L3.082,3.587C3.069,3.601,3.052,3.605,3.036,3.605z"></path></g></g></g><g id="SvgjsG1606" featurekey="UyNsn2-0" transform="matrix(2.1377032356947256,0,0,2.1377032356947256,72.2304270594039,7.114370131857685)" fill="#ffffff"><path d="M3.78 8.54 l-3.42 0 l0 -2.84 l10.3 0 l-0.46 1.4 l-0.46 1.44 l-2.68 0 l0.06 0.56 l0 10.9 l-3.34 0 l0 -11.46 z M12.24 8.4 c0 0.01334 -0.09002 0.019961 -0.27002 0.019961 l-0.59 0 l-0.84 0 l1.36 -2.44 l3.36 0 l0 4.52 c0.28 -0.26666 0.62666 -0.50332 1.04 -0.70998 s0.90668 -0.31 1.48 -0.31 c1.1867 0 2.07 0.33 2.65 0.99 s0.87 1.71 0.87 3.15 l0 6.38 l-3.04 0 l0 -5.98 c0 -0.52 -0.12 -0.93334 -0.36 -1.24 s-0.60666 -0.46 -1.1 -0.46 c-0.42666 0 -0.79 0.11666 -1.09 0.35 s-0.45 0.67668 -0.45 1.33 l0 6 l-3.06 0 z M27.7 9.44 c0.69334 0 1.3166 0.096622 1.87 0.28996 s1.0167 0.50668 1.39 0.94002 s0.66 0.99 0.86 1.67 s0.3 1.5 0.3 2.46 l0 0.31 l-0.04 0.63 l-5.6 0 l-0.42 -0.06 c0.01334 0.38666 0.05668 0.69666 0.13002 0.93 s0.18 0.41668 0.32 0.55002 s0.31 0.22668 0.51 0.28002 s0.42666 0.08668 0.68 0.10002 c0.41334 0.02666 0.77 -0.03334 1.07 -0.18 s0.58334 -0.44666 0.85 -0.9 c0.41334 0.13334 0.79334 0.26 1.14 0.38 c0.29334 0.10666 0.56 0.2 0.8 0.28 s0.36 0.11334 0.36 0.1 c-0.48 1 -1.0633 1.73 -1.75 2.19 s-1.51 0.69 -2.47 0.69 c-0.70666 0 -1.3467 -0.09334 -1.92 -0.28 s-1.06 -0.49 -1.46 -0.91 s-0.71 -0.96666 -0.93 -1.64 s-0.33 -1.4967 -0.33 -2.47 c0 -0.94666 0.11 -1.7567 0.33 -2.43 s0.53 -1.2267 0.93 -1.66 s0.88666 -0.75334 1.46 -0.96 s1.2133 -0.31 1.92 -0.31 z M28.799999999999997 13.440000000000001 l0.30004 0.04 c-0.02666 -0.46666 -0.15 -0.83 -0.37 -1.09 s-0.56334 -0.39 -1.03 -0.39 c-0.53334 0 -0.91668 0.13 -1.15 0.39 s-0.37668 0.62334 -0.43002 1.09 c0.06666 -0.01334 0.12666 -0.02334 0.18 -0.03 s0.11334 -0.01 0.18 -0.01 l2.32 0 z M39.480000000000004 5.82 c0.62666 -0.08 1.2534 -0.14334 1.88 -0.19 s1.3 -0.07 2.02 -0.07 c2.5066 0 4.4134 0.61 5.72 1.83 s1.96 3.09 1.96 5.61 c0 2.5066 -0.66666 4.3366 -2 5.49 s-3.3066 1.73 -5.92 1.73 c-0.64 0 -1.2533 -0.02 -1.84 -0.06 s-1.1933 -0.1 -1.82 -0.18 l0 -14.16 z M42.760000000000005 17.3 c0.65334 0.06666 1.2734 0.06664 1.86 -0.000019531 s1.1033 -0.25332 1.55 -0.55998 s0.8 -0.76332 1.06 -1.37 s0.39 -1.4167 0.39 -2.43 c0 -0.89334 -0.10334 -1.6267 -0.31 -2.2 s-0.48666 -1.03 -0.84 -1.37 s-0.76 -0.57666 -1.22 -0.71 s-0.94334 -0.2 -1.45 -0.2 l-0.49 0 l-0.55 0.04 l0 8.8 z M57.480000000000004 9.44 c0.69334 0 1.3166 0.096622 1.87 0.28996 s1.0167 0.50668 1.39 0.94002 s0.66 0.99 0.86 1.67 s0.3 1.5 0.3 2.46 l0 0.31 l-0.04 0.63 l-5.6 0 l-0.42 -0.06 c0.01334 0.38666 0.05668 0.69666 0.13002 0.93 s0.18 0.41668 0.32 0.55002 s0.31 0.22668 0.51 0.28002 s0.42666 0.08668 0.68 0.10002 c0.41334 0.02666 0.77 -0.03334 1.07 -0.18 s0.58334 -0.44666 0.85 -0.9 c0.41334 0.13334 0.79334 0.26 1.14 0.38 c0.29334 0.10666 0.56 0.2 0.8 0.28 s0.36 0.11334 0.36 0.1 c-0.48 1 -1.0633 1.73 -1.75 2.19 s-1.51 0.69 -2.47 0.69 c-0.70666 0 -1.3467 -0.09334 -1.92 -0.28 s-1.06 -0.49 -1.46 -0.91 s-0.71 -0.96666 -0.93 -1.64 s-0.33 -1.4967 -0.33 -2.47 c0 -0.94666 0.11 -1.7567 0.33 -2.43 s0.53 -1.2267 0.93 -1.66 s0.88666 -0.75334 1.46 -0.96 s1.2133 -0.31 1.92 -0.31 z M58.580000000000005 13.440000000000001 l0.30004 0.04 c-0.02666 -0.46666 -0.15 -0.83 -0.37 -1.09 s-0.56334 -0.39 -1.03 -0.39 c-0.53334 0 -0.91668 0.13 -1.15 0.39 s-0.37668 0.62334 -0.43002 1.09 c0.06666 -0.01334 0.12666 -0.02334 0.18 -0.03 s0.11334 -0.01 0.18 -0.01 l2.32 0 z M62.34 9.54 l3.48 0 l1.96 6.62 l0.04 0.24 l0.04 -0.24 l1.92 -6.62 l3.44 0 l-3.92 10.48 l-3.12 0 z M80.32000000000001 5.720000000000001 l3.42 0 l3.04 7.44 l0.23 -0.55 l0.57 -1.37 l0.73 -1.79 l0.73 -1.8 l0.56 -1.38 l0.22 -0.55 l3.2 0 l0.7 14.28 l-3.3 0 l-0.14 -8.34 l-2.34 5.44 l-2.42 0 l-2.42 -5.44 l-0.22 8.34 l-3.1 0 z M101.24000000000001 15.42 c-0.13334 -0.02666 -0.2733 -0.04338 -0.41996 -0.050038 s-0.27332 -0.01 -0.37998 -0.01 c-0.56 0 -1.0133 0.08666 -1.36 0.26 s-0.52 0.47334 -0.52 0.9 c0 0.26666 0.06334 0.47666 0.19 0.63 s0.28332 0.26668 0.46998 0.34002 s0.38332 0.11668 0.58998 0.13002 s0.38332 0.02 0.52998 0.02 c0.26666 0 0.56666 -0.03334 0.9 -0.1 l0 -2.12 z M100.20000000000002 13.219999999999999 c0.10666 0 0.24996 0.0033594 0.42996 0.01002 s0.38334 0.01666 0.61 0.03 c-0.01334 -0.52 -0.19668 -0.85666 -0.55002 -1.01 s-0.81 -0.23 -1.37 -0.23 c-0.30666 0 -0.66 0.03666 -1.06 0.11 s-0.83334 0.18334 -1.3 0.33 l-0.32 -1.1 c-0.04 -0.14666 -0.09666 -0.36 -0.17 -0.64 s-0.12334 -0.5 -0.15 -0.66 c0.66666 -0.22666 1.2967 -0.39 1.89 -0.49 s1.13 -0.15 1.61 -0.15 c1.4133 0 2.5066 0.33666 3.28 1.01 s1.16 1.75 1.16 3.23 l0 5.86 c-0.52 0.14666 -1.12 0.29 -1.8 0.43 s-1.4133 0.21 -2.2 0.21 c-0.69334 0 -1.3233 -0.06 -1.89 -0.18 s-1.0533 -0.32 -1.46 -0.6 s-0.72 -0.64666 -0.94 -1.1 s-0.33 -1.0067 -0.33 -1.66 s0.13666 -1.2 0.41 -1.64 s0.62668 -0.79 1.06 -1.05 s0.92 -0.44334 1.46 -0.55 s1.0833 -0.16 1.63 -0.16 z M108.24000000000001 15.68 c-0.72 -0.21334 -1.3133 -0.53998 -1.78 -0.97998 s-0.7 -1.0733 -0.7 -1.9 c0 -1.04 0.36666 -1.8533 1.1 -2.44 s1.7467 -0.88 3.04 -0.88 c0.49334 0 1.0033 0.05334 1.53 0.16 s1.1833 0.3 1.97 0.58 l-1.2 2.16 c-0.41334 -0.14666 -0.77 -0.25666 -1.07 -0.33 s-0.64334 -0.11 -1.03 -0.11 c-0.36 0 -0.64334 0.05 -0.85 0.15 s-0.31 0.26334 -0.31 0.49 c0 0.18666 0.07666 0.32 0.23 0.4 s0.35668 0.16666 0.61002 0.26 l1.08 0.32 c0.36 0.10666 0.69666 0.23332 1.01 0.37998 s0.58 0.33 0.8 0.55 s0.39334 0.49666 0.52 0.83 s0.19 0.74 0.19 1.22 c0 0.50666 -0.10334 0.97666 -0.31 1.41 s-0.50666 0.81 -0.9 1.13 s-0.87334 0.57 -1.44 0.75 s-1.21 0.27 -1.93 0.27 c-0.28 0 -0.55 -0.01 -0.81 -0.03 s-0.51666 -0.05334 -0.77 -0.1 s-0.52 -0.11 -0.8 -0.19 s-0.58 -0.17334 -0.9 -0.28 c0.02666 -0.09334 0.05332 -0.2 0.07998 -0.32 s0.06666 -0.27 0.12 -0.45 s0.11334 -0.39666 0.18 -0.65 s0.15332 -0.56668 0.25998 -0.94002 c0.56 0.14666 1.03 0.25332 1.41 0.31998 s0.76334 0.1 1.15 0.1 c0.16 0 0.33 -0.01334 0.51 -0.04 s0.35 -0.07332 0.51 -0.13998 s0.29334 -0.15332 0.4 -0.25998 s0.16 -0.24666 0.16 -0.42 c0 -0.2 -0.07 -0.34 -0.21 -0.42 s-0.35 -0.16666 -0.63 -0.26 z M115.68 12.059999999999999 l-1.24 0 l0 -2.52 l1.24 0 l0 -2.84 l3 0 l0 2.84 l2.48 0 l-1.4 2.52 l-1.18 0 l0.1 0.64 l0 3.14 c0 0.34666 0.02334 0.62666 0.07 0.84 s0.12 0.38 0.22 0.5 s0.22666 0.20334 0.38 0.25 s0.33 0.07 0.53 0.07 c0.14666 0 0.32666 -0.01666 0.54 -0.05 s0.44 -0.07 0.68 -0.11 l0.16 1.34 l0.12 1.2 c-0.38666 0.08 -0.74 0.14 -1.06 0.18 s-0.64666 0.06 -0.98 0.06 c-1.24 0 -2.16 -0.28666 -2.76 -0.86 s-0.9 -1.52 -0.9 -2.84 l0 -4.36 z M126.98 9.44 c0.69334 0 1.3166 0.096622 1.87 0.28996 s1.0167 0.50668 1.39 0.94002 s0.66 0.99 0.86 1.67 s0.3 1.5 0.3 2.46 l0 0.31 l-0.04 0.63 l-5.6 0 l-0.42 -0.06 c0.01334 0.38666 0.05668 0.69666 0.13002 0.93 s0.18 0.41668 0.32 0.55002 s0.31 0.22668 0.51 0.28002 s0.42666 0.08668 0.68 0.10002 c0.41334 0.02666 0.77 -0.03334 1.07 -0.18 s0.58334 -0.44666 0.85 -0.9 c0.41334 0.13334 0.79334 0.26 1.14 0.38 c0.29334 0.10666 0.56 0.2 0.8 0.28 s0.36 0.11334 0.36 0.1 c-0.48 1 -1.0633 1.73 -1.75 2.19 s-1.51 0.69 -2.47 0.69 c-0.70666 0 -1.3467 -0.09334 -1.92 -0.28 s-1.06 -0.49 -1.46 -0.91 s-0.71 -0.96666 -0.93 -1.64 s-0.33 -1.4967 -0.33 -2.47 c0 -0.94666 0.11 -1.7567 0.33 -2.43 s0.53 -1.2267 0.93 -1.66 s0.88666 -0.75334 1.46 -0.96 s1.2133 -0.31 1.92 -0.31 z M128.08 13.440000000000001 l0.30004 0.04 c-0.02666 -0.46666 -0.15 -0.83 -0.37 -1.09 s-0.56334 -0.39 -1.03 -0.39 c-0.53334 0 -0.91668 0.13 -1.15 0.39 s-0.37668 0.62334 -0.43002 1.09 c0.06666 -0.01334 0.12666 -0.02334 0.18 -0.03 s0.11334 -0.01 0.18 -0.01 l2.32 0 z M136.60000000000002 9.92 c0.16 -0.10666 0.38332 -0.21 0.66998 -0.31 s0.61 -0.15 0.97 -0.15 c0.30666 0 0.55666 0.01334 0.75 0.04 s0.29 0.03332 0.29 0.01998 l0 2.66 c-0.30666 -0.02666 -0.60666 -0.03332 -0.9 -0.01998 c-0.25334 0.02666 -0.51668 0.07 -0.79002 0.13 s-0.52334 0.17 -0.75 0.33 c-0.26666 0.18666 -0.45666 0.44 -0.57 0.76 s-0.17 0.76 -0.17 1.32 l0 5.32 l-3 0 l0 -7.94 l-1.62 0 l1.28 -2.54 l3.34 0 l0 0.78 c0.06666 -0.05334 0.12666 -0.10668 0.18 -0.16002 c0.05334 -0.04 0.10668 -0.08334 0.16002 -0.13 s0.10668 -0.08332 0.16002 -0.10998 z"></path></g></svg>